{"title":"Street Fighter Assassin's Fist 2014 720p WEB-DL x264 AAC-SBT","uid":10270740,"size":3365342443,"categoryP":"video","categoryS":"hd___movies","magnet":"?xt=urn:btih:1acffc00704aefa71769adfe8e6b84b3b3fa5501&amp;dn=Street+Fighter+Assassin%27s+Fist+2014+720p+WEB-DL+x264+AAC-SBT&amp;tr=udp%3A%2F%2Ftracker.openbittorrent.com%3A80&amp;tr=udp%3A%2F%2Fopen.demonii.com%3A1337&amp;tr=udp%3A%2F%2Ftracker.coppersurfer.tk%3A6969&amp;tr=udp%3A%2F%2Fexodus.desync.com%3A6969","seeders":3,"leechers":2,"uploader":"StoneBoyTony","files":-1,"time":1401580634,"description":"Street Fighter Assassin's Fist 2014 720p WEB-DL x264 AAC-SBT\n\nThis is a complete movie made from the mini series, removed watermark and unwanted intros, joined all the parts professionally, the job is done enjoy\nthe new reborn Street Fighter Assassin's Fist movie!\n\nStoryline\n\nA multi-layered series that looks back to the formative years of Ryu and Ken as they live a traditional warrior's life in secluded Japan. The boys\nare, unknowingly, the last practitioners of the ancient fighting style known as &quot;Ansatsuken&quot; (Assassin's Fist). The series follows them as they learn\nabout the mysterious past of their master, Goken, and the tragic, dark legacy of the Ansatsuken style. Can their destiny be changed, or will history\nrepeat itself?\n\n\nGenre        : Action/Martial arts\n\nCreated by   : Joey Ansah,Christian Howard\n\nDeveloped by : Joey Ansah,Christian Howard\n\nWritten by   : Joey Ansah,Christian Howard\n\nDirected by  : Joey Ansah\n\nStarring     : Mike Moh,Christian Howard,Akira Koieyama,Shogen Itokazu,Gaku   Space,Hyunri Lee,Togo Igawa,Mark Killeen,Hal Yamanouchi,Joey Ansah\n\n\nGeneral\n\nEncoder                                  : SBT\nSource                                   : SBT\nSubtitles                                : Hardcoded non-English parts\nComplete name                            : Street.Fighter.Assassin's.Fist.2014.720p.WEB-DL.x264.AAC-SBT.mp4\nFormat                                   : MPEG-4\nFormat profile                           : Base Media\nCodec ID                                 : isom\nFile size                                : 3.10 GiB\nDuration                                 : 2h 19mn\nOverall bit rate mode                    : Variable\nOverall bit rate                         : 3 171 Kbps\nWriting application                      : Lavf55.19.104\n\n\nVideo\n\nID                                       : 1\nFormat                                   : AVC\nFormat/Info                              : Advanced Video Codec\nFormat profile                           : &lt;a class=&quot;__cf_email__&quot; href=&quot;/cdn-cgi/l/email-protection&quot; data-cfemail=&quot;9ed3fff7f0ded2aab0ae&quot;&gt;[email&amp;#160;protected]&lt;/a&gt;&lt;script cf-hash='f9e31' type=&quot;text/javascript&quot;&gt;\n/* &lt;![CDATA[ */!function(){try{var t=&quot;currentScript&quot;in document?document.currentScript:function(){for(var t=document.getElementsByTagName(&quot;script&quot;),e=t.length;e--;)if(t[e].getAttribute(&quot;cf-hash&quot;))return t[e]}();if(t&amp;&amp;t.previousSibling){var e,r,n,i,c=t.previousSibling,a=c.getAttribute(&quot;data-cfemail&quot;);if(a){for(e=&quot;&quot;,r=parseInt(a.substr(0,2),16),n=2;a.length-n;n+=2)i=parseInt(a.substr(n,2),16)^r,e+=String.fromCharCode(i);e=document.createTextNode(e),c.parentNode.replaceChild(e,c)}}}catch(u){}}();/* ]]&gt; */&lt;/script&gt;\nFormat settings, CABAC                   : Yes\nFormat settings, ReFrames                : 2 frames\nCodec ID                                 : avc1\nCodec ID/Info                            : Advanced Video Coding\nDuration                                 : 2h 19mn\nBit rate                                 : 3 000 Kbps\nWidth                                    : 1 280 pixels\nHeight                                   : 720 pixels\nDisplay aspect ratio                     : 16:9\nFrame rate mode                          : Constant\nFrame rate                               : 23.976 fps\nColor space                              : YUV\nChroma subsampling                       : 4:2:0\nBit depth                                : 8 bits\nScan type                                : Progressive\nBits/(Pixel*Frame)                       : 0.136\nStream size                              : 2.93 GiB (95%)\nWriting library                          : x264 core 140 r2377 1ca7bb9\nLanguage                                 : English\n\n\nAudio\n\nID                                       : 2\nFormat                                   : AAC\nFormat/Info                              : Advanced Audio Codec\nFormat profile                           : LC\nCodec ID                                 : 40\nDuration                                 : 2h 19mn\nBit rate mode                            : Variable\nBit rate                                 : 165 Kbps\nMaximum bit rate                         : 192 Kbps\nChannel(s)                               : 2 channels\nChannel positions                        : Front: L R\nSampling rate                            : 48.0 KHz\nCompression mode                         : Lossy\nStream size                              : 165 MiB (5%)\nLanguage                                 : English\n\n\nScreenshots\n &lt;a href=&quot;\nhttp://istoreimg.com/i/538a2f42b8b3b.html&quot; rel=&quot;nofollow&quot; target=&quot;_NEW&quot;&gt;\nhttp://istoreimg.com/i/538a2f42b8b3b.html&lt;/a&gt; &lt;a href=&quot;\nhttp://istoreimg.com/i/538a2f43a901c.html&quot; rel=&quot;nofollow&quot; target=&quot;_NEW&quot;&gt;\nhttp://istoreimg.com/i/538a2f43a901c.html&lt;/a&gt; &lt;a href=&quot;\nhttp://istoreimg.com/i/538a2f4516e94.html&quot; rel=&quot;nofollow&quot; target=&quot;_NEW&quot;&gt;\nhttp://istoreimg.com/i/538a2f4516e94.html&lt;/a&gt;  &lt;a href=&quot;\nhttp://istoreimg.com/i/538a2f45ce75f.html&quot; rel=&quot;nofollow&quot; target=&quot;_NEW&quot;&gt;\nhttp://istoreimg.com/i/538a2f45ce75f.html&lt;/a&gt;  &lt;a href=&quot;\nhttp://istoreimg.com/i/538a2f464b1b3.html&quot; rel=&quot;nofollow&quot; target=&quot;_NEW&quot;&gt;\nhttp://istoreimg.com/i/538a2f464b1b3.html&lt;/a&gt;  &lt;a href=&quot;\nhttp://istoreimg.com/i/538a2f471f41d.html&quot; rel=&quot;nofollow&quot; target=&quot;_NEW&quot;&gt;\nhttp://istoreimg.com/i/538a2f471f41d.html&lt;/a&gt;  &lt;a href=&quot;\nhttp://istoreimg.com/i/538a2f47dce4f.html&quot; rel=&quot;nofollow&quot; target=&quot;_NEW&quot;&gt;\nhttp://istoreimg.com/i/538a2f47dce4f.html&lt;/a&gt;  &lt;a href=&quot;\nhttp://istoreimg.com/i/538a2f488c63e.html&quot; rel=&quot;nofollow&quot; target=&quot;_NEW&quot;&gt;\nhttp://istoreimg.com/i/538a2f488c63e.html&lt;/a&gt;  &lt;a href=&quot;\nhttp://istoreimg.com/i/538a2f49ac615.html&quot; rel=&quot;nofollow&quot; target=&quot;_NEW&quot;&gt;\nhttp://istoreimg.com/i/538a2f49ac615.html&lt;/a&gt;  &lt;a href=&quot;\nhttp://istoreimg.com/i/538a2f4a72342.html&quot; rel=&quot;nofollow&quot; target=&quot;_NEW&quot;&gt;\nhttp://istoreimg.com/i/538a2f4a72342.html&lt;/a&gt; ","torrent":{"xt":"urn:btih:1acffc00704aefa71769adfe8e6b84b3b3fa5501","amp;dn":"Street+Fighter+Assassin%27s+Fist+2014+720p+WEB-DL+x264+AAC-SBT","amp;tr":["udp%3A%2F%2Ftracker.openbittorrent.com%3A80","udp%3A%2F%2Fopen.demonii.com%3A1337","udp%3A%2F%2Ftracker.coppersurfer.tk%3A6969","udp%3A%2F%2Fexodus.desync.com%3A6969"],"infoHash":"1acffc00704aefa71769adfe8e6b84b3b3fa5501","infoHashBuffer":{"type":"Buffer","data":[26,207,252,0,112,74,239,167,23,105,173,254,142,107,132,179,179,250,85,1]},"announce":[],"urlList":[]}}